<?xml version="1.0" encoding="UTF-8"?>
<svg version="1.1" xmlns="http://www.w3.org/2000/svg" width="512" height="512">
<path d="M0 0 C1.24450928 -0.01475876 1.24450928 -0.01475876 2.51416016 -0.02981567 C21.00475466 -0.20384429 38.93859852 -0.05520172 57.03125 4.23828125 C58.06056641 4.4796582 59.08988281 4.72103516 60.15039062 4.96972656 C84.34234054 10.82261767 107.32466978 20.44418987 127.73828125 34.76953125 C129.85809809 36.41807435 129.85809809 36.41807435 132.03125 36.23828125 C132.33828857 35.65336914 132.64532715 35.06845703 132.96166992 34.46582031 C134.36919312 31.80038108 135.7937349 29.14440697 137.21875 26.48828125 C137.70150391 25.56789063 138.18425781 24.6475 138.68164062 23.69921875 C143.41770895 14.92636736 143.41770895 14.92636736 148.03125 12.23828125 C150.09375 11.70703125 150.09375 11.70703125 152.03125 11.73828125 C152.670625 11.72796875 153.31 11.71765625 153.96875 11.70703125 C157.96236048 12.73568849 160.51439081 15.46777212 162.76049805 18.81616211 C163.26621338 19.76885986 163.77192871 20.72155762 164.29296875 21.703125 C165.13504883 23.27416992 165.13504883 23.27416992 165.99414062 24.87695312 C166.56326172 25.96556641 167.13238281 27.05417969 167.71875 28.17578125 C168.29947266 29.26052734 168.88019531 30.34527344 169.47851562 31.46289062 C173.77760696 39.54915838 173.77760696 39.54915838 175.05834961 43.02880859 C175.83167355 45.48975254 175.83167355 45.48975254 178.4609375 46.1875 C179.63914062 46.53425781 180.81734375 46.88101563 182.03125 47.23828125 C185.80883776 49.04692199 189.4767868 51.05149343 193.15625 53.05078125 C194.14496094 53.57220703 195.13367188 54.09363281 196.15234375 54.63085938 C202.10215459 57.85535091 206.80985957 60.41125791 208.96875 67.17578125 C209.05070088 71.1913746 208.34603509 72.94146613 206.03125 76.23828125 C203.55192657 78.24380727 200.81986887 79.70391374 198.03125 81.23828125 C196.81776453 81.93272326 195.60562705 82.62952379 194.39453125 83.328125 C190.94857331 85.31333914 187.49220642 87.27934103 184.03125 89.23828125 C184.46115234 89.893125 184.89105469 90.54796875 185.33398438 91.22265625 C196.0851811 107.82428608 204.96083593 125.40595954 211.03125 144.23828125 C211.26247559 144.92196777 211.49370117 145.6056543 211.73193359 146.31005859 C228.97922629 197.43815403 222.82804576 255.87706526 199.37597656 303.93017578 C179.22762808 343.807402 146.18730287 377.43095377 106.03125 397.23828125 C107.79214966 397.2522998 107.79214966 397.2522998 109.58862305 397.26660156 C114.0041907 397.30690839 118.41909097 397.37277353 122.83422852 397.44580078 C124.73387993 397.47377703 126.63364271 397.49510585 128.53344727 397.50927734 C155.89347905 397.72544826 155.89347905 397.72544826 166.3203125 406.48046875 C173.45147002 413.80700045 177.12824526 422.18385136 177.34375 432.36328125 C177.23099345 437.00410351 176.6142297 440.88508707 175.03125 445.23828125 C175.959375 445.15578125 176.8875 445.07328125 177.84375 444.98828125 C187.07376312 445.08132574 194.37160703 449.48258333 200.86328125 455.7265625 C207.62648502 463.56213011 209.40305261 471.69595332 209.3125 481.78125 C208.59032422 490.65799396 204.81340552 498.88806236 198.21484375 504.890625 C189.26529091 512.05377003 181.15622854 512.67690487 169.99427795 512.6259613 C168.56660256 512.63013796 167.1389305 512.6356173 165.71126455 512.64228112 C161.80170377 512.65671091 157.89235423 512.65249878 153.98278201 512.6451143 C149.76115044 512.64037884 145.53956433 512.6528958 141.31794739 512.66313171 C133.05287535 512.68031738 124.78787934 512.68116024 116.52279408 512.67591881 C109.80442301 512.6718756 103.08607439 512.67332247 96.36770439 512.67866707 C94.93281555 512.6797897 94.93281555 512.6797897 93.46893905 512.68093501 C91.5255609 512.68246651 89.58218275 512.68400485 87.63880461 512.68554998 C69.41926158 512.69927408 51.19976152 512.69383787 32.98021948 512.68236477 C16.31606024 512.67243155 -0.34798797 512.68537476 -17.01213007 512.70929896 C-34.12873619 512.73368737 -51.2452906 512.74329852 -68.36191374 512.73664623 C-77.96927943 512.73315356 -87.57655973 512.73538932 -97.18391228 512.75289726 C-105.3620213 512.76761595 -113.53998479 512.76825898 -121.71809094 512.75082635 C-125.88937654 512.74231141 -130.06040213 512.7401788 -134.23167419 512.75547791 C-138.05311954 512.76932028 -141.87408199 512.76456801 -145.69549937 512.74523867 C-147.72647937 512.73970026 -149.75748393 512.75375389 -151.78841728 512.76859277 C-159.0892958 512.70977604 -164.62642049 511.94827596 -170.96875 508.23828125 C-171.94828161 507.67125721 -171.94828161 507.67125721 -172.94760174 507.09277815 C-179.86343104 502.87524969 -184.26786784 495.40478641 -186.49609375 487.74609375 C-188.23741063 478.50704055 -187.52871175 469.53470762 -182.96875 461.23828125 C-177.21807036 453.05146848 -169.9387967 447.20420595 -159.96875 445.23828125 C-157.63574067 445.19939776 -155.30165199 445.19341775 -152.96875 445.23828125 C-153.29875 444.33078125 -153.62875 443.42328125 -153.96875 442.48828125 C-156.60079339 433.02818327 -155.27566757 423.94603671 -150.96875 415.23828125 C-146.55872942 407.50398985 -140.01546098 402.26804226 -131.4921875 399.61328125 C-122.47527429 397.27047037 -113.03547912 397.66133886 -103.78125 397.55078125 C-101.85609733 397.51755263 -99.93096608 397.483058 -98.00585938 397.44726562 C-93.3269422 397.3629995 -88.64806816 397.29589343 -83.96875 397.23828125 C-84.95584961 396.72386475 -85.94294922 396.20944824 -86.95996094 395.67944336 C-93.93300807 392.02051293 -100.78929197 388.37169682 -107.21875 383.80078125 C-108.20633301 383.11036743 -108.20633301 383.11036743 -109.21386719 382.40600586 C-128.85431416 368.51754074 -128.85431416 368.51754074 -130.6484375 363.23828125 C-130.71289062 362.57828125 -130.77734375 361.91828125 -130.84375 361.23828125 C-130.92367187 360.57828125 -131.00359375 359.91828125 -131.0859375 359.23828125 C-130.94505869 356.83394961 -130.16073639 355.30808707 -128.96875 353.23828125 C-130.8843765 351.15398324 -132.80121061 349.07081822 -134.71875 346.98828125 C-135.25757813 346.40175781 -135.79640625 345.81523437 -136.3515625 345.2109375 C-137.40631191 344.0661485 -138.46538198 342.92532296 -139.52905273 341.78881836 C-140.74718617 340.4769029 -141.93394158 339.13595862 -143.11328125 337.7890625 C-143.72558594 337.27730469 -144.33789062 336.76554687 -144.96875 336.23828125 C-146.98783183 336.46262368 -149.00919281 336.69453291 -151.0078125 337.05859375 C-154.09486057 337.34147066 -155.64436893 336.16419699 -157.96875 334.23828125 C-160.5577935 331.73851511 -160.94065569 330.49113 -161.34375 326.86328125 C-160.96875 323.23828125 -160.96875 323.23828125 -159.14453125 320.58984375 C-157.66258334 317.44836406 -157.66258334 317.44836406 -158.66015625 315.10205078 C-159.93176675 312.65327164 -161.31346161 310.32468382 -162.78125 307.98828125 C-163.74909856 306.3807115 -164.71409245 304.77141849 -165.67578125 303.16015625 C-166.33284058 302.10199707 -166.33284058 302.10199707 -167.00317383 301.02246094 C-167.96875 299.23828125 -167.96875 299.23828125 -167.96875 297.23828125 C-168.56042969 297.2846875 -169.15210938 297.33109375 -169.76171875 297.37890625 C-170.55191406 297.415 -171.34210938 297.45109375 -172.15625 297.48828125 C-172.93355469 297.5346875 -173.71085937 297.58109375 -174.51171875 297.62890625 C-177.99246063 297.07552916 -179.49219211 295.71889907 -181.96875 293.23828125 C-204.89406351 250.93628999 -203.45125801 193.0856121 -190.25 148.25390625 C-179.93479951 114.9270413 -162.14578051 86.21888358 -137.96875 61.23828125 C-136.90914062 60.11873047 -136.90914062 60.11873047 -135.828125 58.9765625 C-130.60412997 53.57206358 -124.88847178 48.86001587 -118.96875 44.23828125 C-118.43427246 43.81675781 -117.89979492 43.39523438 -117.34912109 42.9609375 C-84.57819591 17.3000562 -41.90379276 0.41214154 0 0 Z " fill="#E1E8ED" transform="translate(244.96875,-0.23828125)"/>
<path d="M0 0 C1.24450928 -0.01475876 1.24450928 -0.01475876 2.51416016 -0.02981567 C21.00475466 -0.20384429 38.93859852 -0.05520172 57.03125 4.23828125 C58.06056641 4.4796582 59.08988281 4.72103516 60.15039062 4.96972656 C84.34234054 10.82261767 107.32466978 20.44418987 127.73828125 34.76953125 C129.85809809 36.41807435 129.85809809 36.41807435 132.03125 36.23828125 C132.33828857 35.65336914 132.64532715 35.06845703 132.96166992 34.46582031 C134.36919312 31.80038108 135.7937349 29.14440697 137.21875 26.48828125 C137.70150391 25.56789063 138.18425781 24.6475 138.68164062 23.69921875 C143.41770895 14.92636736 143.41770895 14.92636736 148.03125 12.23828125 C150.09375 11.70703125 150.09375 11.70703125 152.03125 11.73828125 C152.670625 11.72796875 153.31 11.71765625 153.96875 11.70703125 C157.96236048 12.73568849 160.51439081 15.46777212 162.76049805 18.81616211 C163.26621338 19.76885986 163.77192871 20.72155762 164.29296875 21.703125 C165.13504883 23.27416992 165.13504883 23.27416992 165.99414062 24.87695312 C166.56326172 25.96556641 167.13238281 27.05417969 167.71875 28.17578125 C168.29947266 29.26052734 168.88019531 30.34527344 169.47851562 31.46289062 C173.77760696 39.54915838 173.77760696 39.54915838 175.05834961 43.02880859 C175.83167355 45.48975254 175.83167355 45.48975254 178.4609375 46.1875 C179.63914062 46.53425781 180.81734375 46.88101563 182.03125 47.23828125 C185.80883776 49.04692199 189.4767868 51.05149343 193.15625 53.05078125 C194.14496094 53.57220703 195.13367188 54.09363281 196.15234375 54.63085938 C202.10215459 57.85535091 206.80985957 60.41125791 208.96875 67.17578125 C209.05070088 71.1913746 208.34603509 72.94146613 206.03125 76.23828125 C203.55192657 78.24380727 200.81986887 79.70391374 198.03125 81.23828125 C196.81776453 81.93272326 195.60562705 82.62952379 194.39453125 83.328125 C190.94857331 85.31333914 187.49220642 87.27934103 184.03125 89.23828125 C184.46115234 89.893125 184.89105469 90.54796875 185.33398438 91.22265625 C196.0851811 107.82428608 204.96083593 125.40595954 211.03125 144.23828125 C211.26247559 144.92196777 211.49370117 145.6056543 211.73193359 146.31005859 C228.97922629 197.43815403 222.82804576 255.87706526 199.37597656 303.93017578 C179.22762808 343.807402 146.18730287 377.43095377 106.03125 397.23828125 C107.79214966 397.2522998 107.79214966 397.2522998 109.58862305 397.26660156 C114.0041907 397.30690839 118.41909097 397.37277353 122.83422852 397.44580078 C124.73387993 397.47377703 126.63364271 397.49510585 128.53344727 397.50927734 C155.89347905 397.72544826 155.89347905 397.72544826 166.3203125 406.48046875 C173.45147002 413.80700045 177.12824526 422.18385136 177.34375 432.36328125 C177.23099345 437.00410351 176.6142297 440.88508707 175.03125 445.23828125 C175.959375 445.15578125 176.8875 445.07328125 177.84375 444.98828125 C187.07376312 445.08132574 194.37160703 449.48258333 200.86328125 455.7265625 C207.62648502 463.56213011 209.40305261 471.69595332 209.3125 481.78125 C208.59032422 490.65799396 204.81340552 498.88806236 198.21484375 504.890625 C189.26529091 512.05377003 181.15622854 512.67690487 169.99427795 512.6259613 C168.56660256 512.63013796 167.1389305 512.6356173 165.71126455 512.64228112 C161.80170377 512.65671091 157.89235423 512.65249878 153.98278201 512.6451143 C149.76115044 512.64037884 145.53956433 512.6528958 141.31794739 512.66313171 C133.05287535 512.68031738 124.78787934 512.68116024 116.52279408 512.67591881 C109.80442301 512.6718756 103.08607439 512.67332247 96.36770439 512.67866707 C94.93281555 512.6797897 94.93281555 512.6797897 93.46893905 512.68093501 C91.5255609 512.68246651 89.58218275 512.68400485 87.63880461 512.68554998 C69.41926158 512.69927408 51.19976152 512.69383787 32.98021948 512.68236477 C16.31606024 512.67243155 -0.34798797 512.68537476 -17.01213007 512.70929896 C-34.12873619 512.73368737 -51.2452906 512.74329852 -68.36191374 512.73664623 C-77.96927943 512.73315356 -87.57655973 512.73538932 -97.18391228 512.75289726 C-105.3620213 512.76761595 -113.53998479 512.76825898 -121.71809094 512.75082635 C-125.88937654 512.74231141 -130.06040213 512.7401788 -134.23167419 512.75547791 C-138.05311954 512.76932028 -141.87408199 512.76456801 -145.69549937 512.74523867 C-147.72647937 512.73970026 -149.75748393 512.75375389 -151.78841728 512.76859277 C-159.0892958 512.70977604 -164.62642049 511.94827596 -170.96875 508.23828125 C-171.94828161 507.67125721 -171.94828161 507.67125721 -172.94760174 507.09277815 C-179.86343104 502.87524969 -184.26786784 495.40478641 -186.49609375 487.74609375 C-188.23741063 478.50704055 -187.52871175 469.53470762 -182.96875 461.23828125 C-177.21807036 453.05146848 -169.9387967 447.20420595 -159.96875 445.23828125 C-157.63574067 445.19939776 -155.30165199 445.19341775 -152.96875 445.23828125 C-153.29875 444.33078125 -153.62875 443.42328125 -153.96875 442.48828125 C-156.60079339 433.02818327 -155.27566757 423.94603671 -150.96875 415.23828125 C-146.55872942 407.50398985 -140.01546098 402.26804226 -131.4921875 399.61328125 C-122.47527429 397.27047037 -113.03547912 397.66133886 -103.78125 397.55078125 C-101.85609733 397.51755263 -99.93096608 397.483058 -98.00585938 397.44726562 C-93.3269422 397.3629995 -88.64806816 397.29589343 -83.96875 397.23828125 C-84.95584961 396.72386475 -85.94294922 396.20944824 -86.95996094 395.67944336 C-93.93300807 392.02051293 -100.78929197 388.37169682 -107.21875 383.80078125 C-108.20633301 383.11036743 -108.20633301 383.11036743 -109.21386719 382.40600586 C-128.85431416 368.51754074 -128.85431416 368.51754074 -130.6484375 363.23828125 C-131.32869051 356.27249047 -131.32869051 356.27249047 -128.96875 353.23828125 C-127.15206135 351.20358997 -125.74318288 350.37178717 -123.04980469 349.9074707 C-116.18941385 349.54183449 -112.86689692 351.81030041 -107.78125 356.17578125 C-106.28560799 357.38400102 -104.78687327 358.58840183 -103.28515625 359.7890625 C-102.55184082 360.38154785 -101.81852539 360.9740332 -101.06298828 361.58447266 C-73.236961 383.55853524 -36.22509614 396.59522862 -0.96875 398.23828125 C0.49473877 398.31199951 0.49473877 398.31199951 1.98779297 398.38720703 C54.12257521 400.63155269 102.35252801 381.41133796 140.96875 347.05078125 C145.31997394 343.00313107 149.27261648 338.83555511 153.03125 334.23828125 C153.93359375 333.171875 154.8359375 332.10546875 155.73828125 331.0390625 C171.87218522 311.70471881 182.87202446 289.93901252 191.03125 266.23828125 C191.29196289 265.50794678 191.55267578 264.7776123 191.82128906 264.02514648 C193.75607265 258.48180898 195.0540372 252.93814975 196.15625 247.17578125 C196.32511719 246.32951172 196.49398438 245.48324219 196.66796875 244.61132812 C198.26463375 236.45827887 199.18984191 228.52797656 199.26953125 220.2265625 C199.27927979 219.3842659 199.28902832 218.5419693 199.29907227 217.67414856 C199.68284229 193.34535163 199.68284229 193.34535163 195.62548828 169.45507812 C195.0017332 167.12816927 194.46333427 164.79139011 193.93359375 162.44140625 C189.52838279 143.55158729 181.49463155 121.36374429 169.03125 106.23828125 C168.12632812 107.81029297 168.12632812 107.81029297 167.203125 109.4140625 C166.39626883 110.79322362 165.58895295 112.17211587 164.78125 113.55078125 C164.38550781 114.24107422 163.98976563 114.93136719 163.58203125 115.64257812 C159.65257956 122.30976255 159.65257956 122.30976255 156.03125 124.23828125 C153.84765625 124.7421875 153.84765625 124.7421875 151.59375 124.80078125 C150.48193359 124.86458984 150.48193359 124.86458984 149.34765625 124.9296875 C144.78683224 123.56836229 142.75444453 119.54147419 140.56274414 115.59204102 C138.39498236 111.41832136 136.26571955 107.22875233 134.19921875 103.00390625 C130.51794426 95.87199133 127.13206401 91.95173547 120.03125 88.23828125 C119.1973877 87.77663574 118.36352539 87.31499023 117.50439453 86.83935547 C114.04499045 84.94344268 110.55555878 83.10920529 107.05273438 81.29492188 C102.45362476 78.83996815 98.79984259 76.83747331 96.03125 72.23828125 C95.34167359 68.02420316 95.62220451 65.96547322 97.71875 62.23828125 C102.00732847 57.5985911 108.45269329 54.99897257 114.03125 52.23828125 C103.97188765 41.52633672 86.53106916 36.10656016 73.03125 31.23828125 C72.33821777 30.9870752 71.64518555 30.73586914 70.93115234 30.47705078 C26.95659028 14.86548539 -23.72599987 18.00282519 -65.96875 37.23828125 C-66.67821777 37.56054688 -67.38768555 37.8828125 -68.11865234 38.21484375 C-114.15823259 59.47884138 -149.19341598 98.0899685 -166.83251953 145.56298828 C-171.07486798 157.53416976 -173.79428492 169.74095979 -175.96875 182.23828125 C-176.1445459 183.13716064 -176.3203418 184.03604004 -176.50146484 184.9621582 C-177.07401203 188.97627036 -177.16806246 192.89943405 -177.20703125 196.94921875 C-177.21700638 197.78564407 -177.22698151 198.6220694 -177.23725891 199.48384094 C-177.48456675 225.65324594 -175.27506378 248.45054147 -166.32275391 273.18041992 C-165.89140137 274.38674072 -165.46004883 275.59306152 -165.015625 276.8359375 C-164.62213867 277.90336182 -164.22865234 278.97078613 -163.82324219 280.07055664 C-162.67967384 284.30992787 -162.10711314 288.38772026 -164 292.453125 C-167.78988902 296.89818101 -167.78988902 296.89818101 -170.97265625 297.81640625 C-174.39630404 297.99830784 -176.66103564 297.43529349 -179.53125 295.59765625 C-196.10949667 279.55076364 -198.70154453 237.89785592 -199.13671875 216.30078125 C-199.58472866 157.3272622 -179.0921833 103.72853387 -137.96875 61.23828125 C-136.90914062 60.11873047 -136.90914062 60.11873047 -135.828125 58.9765625 C-130.60412997 53.57206358 -124.88847178 48.86001587 -118.96875 44.23828125 C-118.43427246 43.81675781 -117.89979492 43.39523438 -117.34912109 42.9609375 C-84.57819591 17.3000562 -41.90379276 0.41214154 0 0 Z " fill="#010101" transform="translate(244.96875,-0.23828125)"/>
<path d="M0 0 C4.24011077 2.8857386 6.29348695 5.79385862 8.63671875 10.3203125 C9.11861412 11.23838432 9.11861412 11.23838432 9.61024475 12.17500305 C10.64617722 14.15321211 11.66664667 16.13897463 12.6875 18.125 C13.75536424 20.17118916 14.82723303 22.2152492 15.8991394 24.25932312 C16.60794011 25.61190226 17.31540564 26.96518194 18.02151489 28.31916809 C20.84904192 33.73821191 23.76371823 39.10414836 26.75 44.4375 C27.13115967 45.12021973 27.51231934 45.80293945 27.9050293 46.50634766 C29.30119542 48.99929843 30.69834957 51.4887563 32.15039062 53.94970703 C35 58.79928306 35 58.79928306 35 61 C35.70527832 61.26772217 36.41055664 61.53544434 37.13720703 61.8112793 C40.13556277 63.05628988 42.94211607 64.48820076 45.8046875 66.01953125 C46.93511475 66.62369873 48.06554199 67.22786621 49.23022461 67.8503418 C50.44533134 68.50405708 51.66025254 69.15811735 52.875 69.8125 C53.49005402 70.14303375 54.10510803 70.4735675 54.73880005 70.81411743 C63.51258913 75.53171097 72.25094427 80.31077507 80.9375 85.1875 C81.88286621 85.71512939 82.82823242 86.24275879 83.80224609 86.78637695 C95.08538881 93.17077762 95.08538881 93.17077762 97 97 C97.60667068 102.33870199 96.2563369 104.8166668 93 109 C90.26123047 110.89941406 90.26123047 110.89941406 87.1171875 112.515625 C85.95823975 113.12220947 84.79929199 113.72879395 83.60522461 114.35375977 C82.36188005 114.98596503 81.11847057 115.61804262 79.875 116.25 C78.60270423 116.91096336 77.33130512 117.57365545 76.06079102 118.23803711 C73.53903832 119.55615325 71.01441846 120.86849835 68.48779297 122.17724609 C63.92628564 124.56113338 59.42408236 127.04109843 54.9375 129.5625 C53.63426292 130.29323337 52.33088299 131.02371205 51.02734375 131.75390625 C50.0827832 132.29736694 50.0827832 132.29736694 49.11914062 132.85180664 C47.54147552 133.70661758 45.92262 134.48623657 44.28710938 135.22436523 C36.39574687 138.97035815 33.32099144 143.15538123 29.625 150.9375 C28.53504089 153.08720121 27.44252143 155.23560585 26.34765625 157.3828125 C25.79996582 158.47754883 25.25227539 159.57228516 24.68798828 160.70019531 C21.97782035 165.9982326 19.02210831 171.15091918 16.0625 176.3125 C15.0314374 178.12045851 14.00144926 179.9290303 12.97265625 181.73828125 C12.48168457 182.59502441 11.99071289 183.45176758 11.48486328 184.33447266 C10.44260094 186.20547237 9.43885607 188.0982006 8.46435547 190.00537109 C7.9592041 190.98715332 7.45405273 191.96893555 6.93359375 192.98046875 C6.26734985 194.31501099 6.26734985 194.31501099 5.58764648 195.67651367 C3.70054056 198.43825243 1.99865018 199.56001267 -1 201 C-4.5 201.5 -4.5 201.5 -8 201 C-12.38927904 197.32116517 -14.85905991 193.15516695 -17.5 188.1875 C-17.91942871 187.41631836 -18.33885742 186.64513672 -18.77099609 185.85058594 C-20.18928819 183.23829458 -21.59470162 180.61930203 -23 178 C-24.08514612 175.99045787 -25.17111157 173.98135801 -26.2578125 171.97265625 C-27.08647827 170.43689941 -27.08647827 170.43689941 -27.93188477 168.87011719 C-29.06399852 166.78382825 -30.20518648 164.7024388 -31.35522461 162.62597656 C-36.0405104 154.13649201 -36.0405104 154.13649201 -37.62109375 149.88671875 C-42.70674085 137.71699954 -54.88424974 133.42726533 -66.06855774 127.93869019 C-72.82913368 124.61890998 -79.46927427 121.09189961 -86.07827759 117.480896 C-87.96364763 116.45723746 -89.85919047 115.45474982 -91.7565918 114.45361328 C-92.9094165 113.82825684 -94.06224121 113.20290039 -95.25 112.55859375 C-96.26578125 112.01517334 -97.2815625 111.47175293 -98.328125 110.91186523 C-101.49325544 108.64705013 -103.09879606 106.37624724 -105 103 C-105.57557493 99.47460355 -105.45477703 97.77456261 -103.64453125 94.69140625 C-99.73648783 90.71409175 -95.11145363 88.54239802 -90.1875 86 C-88.02106533 84.85619118 -85.85572883 83.71030032 -83.69140625 82.5625 C-82.03069092 81.68464844 -82.03069092 81.68464844 -80.33642578 80.7890625 C-74.10367184 77.44692721 -67.97439945 73.9218299 -61.84057617 70.40234375 C-60.95732666 69.89832031 -60.07407715 69.39429688 -59.1640625 68.875 C-58.30651367 68.37846924 -57.44896484 67.88193848 -56.56542969 67.37036133 C-54 66 -54 66 -51.37988281 64.97924805 C-43.01708528 61.6342876 -40.28093526 55.62194995 -36.5 47.8125 C-35.85797186 46.54332138 -35.21275756 45.27574977 -34.56445312 44.00976562 C-33.28246034 41.50134594 -32.0131705 38.98718622 -30.75390625 36.46728516 C-28.44969142 31.91209878 -26.00467389 27.44729463 -23.5 23 C-23.10345215 22.29262695 -22.7069043 21.58525391 -22.29833984 20.85644531 C-21.55178052 19.526904 -20.80366069 18.1982373 -20.05371094 16.87060547 C-19.01933036 15.03431632 -17.99757522 13.19140242 -16.9765625 11.34765625 C-16.36554688 10.26355469 -15.75453125 9.17945312 -15.125 8.0625 C-14.61195313 7.14597656 -14.09890625 6.22945313 -13.5703125 5.28515625 C-10.16034268 0.32288674 -5.96645172 -1.41106028 0 0 Z " fill="#020202" transform="translate(260,109)"/>
<path d="M0 0 C0.66 0 1.32 0 2 0 C2.66418945 1.25321045 2.66418945 1.25321045 3.34179688 2.53173828 C5.02444109 5.70513714 6.71006624 8.87694517 8.39648438 12.04833984 C9.11862126 13.40729921 9.84000559 14.7666588 10.56054688 16.12646484 C12.31949097 19.44536634 14.08925333 22.75748099 15.88183594 26.05834961 C17.28458521 28.64328734 18.62939561 31.24761973 19.93847656 33.88110352 C24.1746083 42.17405875 28.35370847 46.63271944 36.75 50.6875 C38.23898804 51.46613403 38.23898804 51.46613403 39.75805664 52.26049805 C41.80603648 53.33092576 43.86154789 54.38706658 45.92431641 55.42871094 C50.82954962 57.93467069 55.62561663 60.6330564 60.4375 63.3125 C62.10199099 64.22685252 63.76726802 65.13977668 65.43359375 66.05078125 C66.12509521 66.42887939 66.81659668 66.80697754 67.52905273 67.1965332 C68.01446533 67.46167725 68.49987793 67.72682129 69 68 C69 68.99 69 69.98 69 71 C68.30140869 71.3717334 67.60281738 71.7434668 66.88305664 72.12646484 C60.16623292 75.70621603 60.16623292 75.70621603 53.47265625 79.32910156 C52.58246292 79.81455444 52.58246292 79.81455444 51.67428589 80.30981445 C50.47550159 80.96366345 49.27687326 81.61779849 48.07839966 82.2722168 C44.70223952 84.10663858 41.29974174 85.85314192 37.83984375 87.5234375 C26.94000936 92.96979266 22.48685679 99.32816374 17.37060547 110.21044922 C14.61795329 115.81283678 11.45469473 121.19788067 8.375 126.625 C7.15238535 128.80398073 5.93092613 130.9836104 4.7109375 133.1640625 C3.80733548 134.77606623 2.90370747 136.38805539 2 138 C-2.12632014 136.62455995 -2.93435947 133.92223875 -4.80078125 130.25390625 C-5.15963913 129.5687645 -5.51849701 128.88362274 -5.88822937 128.17771912 C-7.03882632 125.97728454 -8.17620317 123.77034808 -9.3125 121.5625 C-11.86670535 116.63790429 -14.43754529 111.72274736 -17.04107666 106.82403564 C-17.89058582 105.20812441 -18.71185125 103.57743428 -19.52880859 101.94482422 C-23.11453497 95.22079954 -27.27627134 92.38038062 -34 89 C-36.12882151 87.84468823 -38.25636627 86.68702161 -40.3828125 85.52734375 C-43.76684391 83.7208159 -47.15475012 81.92170694 -50.54296875 80.12304688 C-56.50526527 76.93966868 -62.32378982 73.67080096 -68 70 C-64.78171448 66.37109519 -61.15147183 64.25162997 -56.890625 62.06640625 C-56.20498474 61.70659164 -55.51934448 61.34677704 -54.81292725 60.97605896 C-52.62887852 59.83116569 -50.4398422 58.69626691 -48.25 57.5625 C-43.38389246 55.03036994 -38.52775046 52.48165946 -33.69195557 49.89205933 C-32.28349199 49.14946709 -30.85641804 48.44230589 -29.42529297 47.74438477 C-23.13743413 44.41856892 -20.71158195 39.01375896 -17.625 32.8125 C-16.508801 30.65964345 -15.39160239 28.5073049 -14.2734375 26.35546875 C-13.72655273 25.28731934 -13.17966797 24.21916992 -12.61621094 23.11865234 C-10.25698723 18.56627718 -7.76240449 14.09411878 -5.25 9.625 C-2.5505863 4.85218333 -2.5505863 4.85218333 0 0 Z " fill="#88DD8D" transform="translate(255,140)"/>
<path d="M0 0 C8.02824841 5.55346387 13.37647908 12.59427651 16 22 C17.01772905 32.54414632 16.28792862 41.87947119 10.1171875 50.6875 C4.10261927 57.93085099 -3.48958124 63.63514601 -13 65 C-22.83751866 65.78648576 -30.63337228 65.0052984 -38.6640625 59.01171875 C-46.49671711 52.32277035 -52.31820038 45.06376116 -53.3359375 34.51953125 C-53.46758289 22.02638388 -51.44236892 13.39696548 -42.64453125 4.234375 C-29.68952893 -6.71135812 -14.81361211 -7.74433139 0 0 Z " fill="#FCB44B" transform="translate(273,427)"/>
<path d="M0 0 C0.94902695 -0.00860046 1.89805389 -0.01720093 2.87583923 -0.02606201 C3.92565979 -0.03032196 4.97548035 -0.03458191 6.05711365 -0.03897095 C7.70591774 -0.05123718 7.70591774 -0.05123718 9.38803101 -0.06375122 C13.04521634 -0.08867073 16.70236259 -0.10514088 20.35960388 -0.11953735 C22.22981862 -0.12752287 22.22981862 -0.12752287 24.13781548 -0.13566971 C29.38006661 -0.15691735 34.62231185 -0.17604502 39.86459446 -0.1872921 C47.3713377 -0.20350323 54.87756092 -0.23659514 62.38410813 -0.29369295 C68.30167957 -0.33716259 74.21913592 -0.35304782 80.13686943 -0.35942459 C82.65064627 -0.36614048 85.16441546 -0.38137113 87.67808723 -0.4053154 C91.20196458 -0.43695816 94.72453757 -0.43700373 98.2485199 -0.42959595 C99.28417084 -0.44600128 100.31982178 -0.46240662 101.38685608 -0.47930908 C107.95994171 -0.4228681 112.59710007 0.72789136 117.60569763 5.15390015 C120.58431455 9.62182552 120.33879285 13.91750571 119.60569763 19.15390015 C117.97152061 22.58432134 115.71009099 24.61695577 112.26646137 26.29121208 C109.42056624 27.21392451 107.20638512 27.40036214 104.22097778 27.39440918 C102.62039268 27.39853317 102.62039268 27.39853317 100.98747253 27.40274048 C99.82725586 27.39554993 98.66703918 27.38835937 97.47166443 27.38095093 C96.24198441 27.38124298 95.01230438 27.38153503 93.74536133 27.38183594 C90.38203151 27.38068292 87.01894846 27.37066571 83.6556623 27.35668802 C80.13761611 27.34416927 76.61956649 27.34300926 73.10150146 27.34063721 C66.44343453 27.3344258 59.78543342 27.31801959 53.12739545 27.29793823 C45.54581271 27.27556866 37.9642268 27.26458314 30.38261926 27.25454736 C14.79027395 27.23365305 -0.80200571 27.19848368 -16.39430237 27.15390015 C-15.9802565 26.4835524 -15.56621063 25.81320465 -15.13961792 25.12254333 C-14.59758224 24.23449509 -14.05554657 23.34644684 -13.49708557 22.43148804 C-12.9592897 21.55489029 -12.42149384 20.67829254 -11.86740112 19.77513123 C-9.8458253 16.17794037 -8.66059805 12.55455483 -7.58180237 8.59140015 C-5.13364057 0.03449176 -5.13364057 0.03449176 0 0 Z " fill="#C88D7E" transform="translate(313.39430236816406,464.8460998535156)"/>
<path d="M0 0 C1.62528374 -0.00065712 1.62528374 -0.00065712 3.28340149 -0.00132751 C6.85464677 0.00075775 10.42541904 0.02407716 13.99658203 0.04760742 C16.47665144 0.05320429 18.95672418 0.05747396 21.4367981 0.06047058 C27.95688064 0.07191211 34.47676196 0.10137367 40.99676514 0.13458252 C47.65291549 0.16692385 54.30912448 0.17897913 60.96533203 0.1940918 C74.02010526 0.22624375 87.07473918 0.27685343 100.12939453 0.34057617 C100.43697189 1.26663918 100.43697189 1.26663918 100.75076294 2.21141052 C101.0202475 3.02159134 101.28973206 3.83177216 101.56738281 4.66650391 C101.96777267 5.87100441 101.96777267 5.87100441 102.37625122 7.09983826 C103.20177586 9.55592374 104.06782557 11.98705978 105.00439453 14.40307617 C105.29056641 15.15717773 105.57673828 15.9112793 105.87158203 16.68823242 C107.01542612 19.10025148 108.28482964 21.25276697 109.70800781 23.50634766 C110.16072052 24.2249144 110.61343323 24.94348114 111.0798645 25.68382263 C111.42620941 26.2305513 111.77255432 26.77727997 112.12939453 27.34057617 C96.06546584 27.43406863 80.00162557 27.5045793 63.93749046 27.54782486 C56.47841668 27.56843936 49.01951207 27.59653844 41.56054688 27.64233398 C35.0583674 27.68223611 28.55631045 27.70801708 22.05401194 27.71693015 C18.61187673 27.72213928 15.17009204 27.73435872 11.72806931 27.7634964 C7.88309979 27.79578032 4.03847139 27.79653341 0.19335938 27.79467773 C-0.94456055 27.80905884 -2.08248047 27.82343994 -3.25488281 27.83825684 C-9.45318328 27.80584696 -13.16284694 27.50912141 -17.87060547 23.34057617 C-20.82143521 20.28992978 -21.30226958 18.11074926 -21.30810547 13.90307617 C-21.19749919 10.29154062 -20.99105863 8.56295123 -19.24560547 5.34057617 C-13.06868617 0.13895992 -7.74822227 -0.08222575 0 0 Z " fill="#C88D7E" transform="translate(99.87060546875,464.659423828125)"/>
<path d="M0 0 C12.69122429 -0.0694916 25.38240335 -0.12280712 38.07377911 -0.15543652 C43.96681625 -0.1710965 49.85972329 -0.1923411 55.75268555 -0.22631836 C61.43906243 -0.25889955 67.1253141 -0.27685051 72.81177711 -0.28463173 C74.98192122 -0.29017743 77.15205843 -0.30100673 79.32214928 -0.31719017 C82.3603436 -0.33894765 85.39801968 -0.34196759 88.4362793 -0.34057617 C89.78387329 -0.35675491 89.78387329 -0.35675491 91.15869141 -0.3732605 C97.36659406 -0.34246968 100.61533451 0.87313618 105.3125 5.0625 C107.78609759 9.3683921 108.01702602 13.15594273 107 18 C104.71514447 21.97521886 102.37344571 24.54218476 98 26 C95.30728714 26.09122131 92.64099575 26.12602134 89.94848633 26.11352539 C89.12874832 26.11367142 88.30901031 26.11381744 87.46443176 26.1139679 C84.75360472 26.11327096 82.0428463 26.10548878 79.33203125 26.09765625 C77.45301857 26.09579129 75.5740054 26.09436776 73.69499207 26.09336853 C68.74824685 26.08954948 63.80153098 26.07972438 58.85479736 26.06866455 C53.80749915 26.0584373 48.76019621 26.05386809 43.71289062 26.04882812 C33.80858086 26.03810159 23.90429287 26.02103248 14 26 C13.67531738 25.19755859 13.35063477 24.39511719 13.01611328 23.56835938 C12.58024902 22.50423828 12.14438477 21.44011719 11.6953125 20.34375 C11.26750488 19.29380859 10.83969727 18.24386719 10.39892578 17.16210938 C7.65783549 10.96619289 4.07675954 5.39052317 0 0 Z " fill="#CB8F80" transform="translate(294,419)"/>
<path d="M0 0 C1.21782417 -0.00412399 1.21782417 -0.00412399 2.46025085 -0.0083313 C3.34713593 -0.00114075 4.234021 0.0060498 5.14778137 0.01345825 C6.55295265 0.01302017 6.55295265 0.01302017 7.98651123 0.01257324 C11.08699259 0.01396806 14.1872345 0.02953649 17.28767395 0.04519653 C19.43572864 0.04892612 21.58378504 0.05177335 23.73184204 0.05377197 C29.38882636 0.06141268 35.04570819 0.08106498 40.70265198 0.10317993 C46.47381707 0.1236289 52.24499871 0.13277166 58.01618958 0.14285278 C69.34240651 0.16431042 80.66854734 0.19845169 91.9947052 0.24050903 C91.58278931 0.78093842 91.17087341 1.3213678 90.74647522 1.87817383 C90.20609619 2.59184113 89.66571716 3.30550842 89.10896301 4.040802 C88.57329712 4.74623138 88.03763123 5.45166077 87.48573303 6.1784668 C85.60272273 8.78260784 84.14675467 11.47667084 82.7447052 14.36550903 C82.26517395 15.33746216 81.7856427 16.30941528 81.2915802 17.31082153 C79.99305374 20.24423975 78.98894585 23.1928075 77.9947052 26.24050903 C67.4242985 26.37970893 56.85411089 26.4862314 46.28297329 26.55138206 C41.37397253 26.58265611 36.46560018 26.62505682 31.55696106 26.69314575 C26.81716831 26.75847892 22.07797884 26.79424461 17.33777046 26.80977249 C15.53204415 26.82083387 13.72634979 26.84243494 11.92088127 26.87488937 C9.38544522 26.91864071 6.85248125 26.92443571 4.31672668 26.92166138 C3.57513306 26.94323303 2.83353943 26.96480469 2.06947327 26.98703003 C-3.20079102 26.92489437 -5.84565846 25.30681735 -9.66895962 21.72437477 C-12.64421474 18.42065337 -12.39157912 15.0522593 -12.36076355 10.78738403 C-11.78413853 6.65596081 -10.0257908 5.05027276 -7.0052948 2.24050903 C-3.96425237 0.21314742 -3.40550757 -0.00890329 0 0 Z " fill="#CB8F80" transform="translate(123.00529479980469,418.7594909667969)"/>
<path d="M0 0 C0.66 0 1.32 0 2 0 C3.33858524 2.28874173 4.67101014 4.58069656 6 6.875 C6.3815625 7.52597656 6.763125 8.17695312 7.15625 8.84765625 C10 13.7734375 10 13.7734375 10 16 C10.70511719 16.26554687 11.41023438 16.53109375 12.13671875 16.8046875 C15.15567786 18.06498967 17.95185076 19.53957994 20.8125 21.125 C21.78832031 21.66382812 22.76414062 22.20265625 23.76953125 22.7578125 C24.50558594 23.16773437 25.24164063 23.57765625 26 24 C23.6402381 26.1156486 21.42100032 27.81910143 18.5 29.07421875 C9.00250014 33.25575688 6.0252028 39.93464356 2 49 C1.34 49 0.68 49 0 49 C-1.33858524 46.71125827 -2.67101014 44.41930344 -4 42.125 C-4.3815625 41.47402344 -4.763125 40.82304688 -5.15625 40.15234375 C-8 35.2265625 -8 35.2265625 -8 33 C-8.70511719 32.73445313 -9.41023438 32.46890625 -10.13671875 32.1953125 C-13.15567786 30.93501033 -15.95185076 29.46042006 -18.8125 27.875 C-19.78832031 27.33617188 -20.76414062 26.79734375 -21.76953125 26.2421875 C-22.50558594 25.83226563 -23.24164063 25.42234375 -24 25 C-21.53848669 22.19868182 -18.87638216 20.78868575 -15.5625 19.125 C-7.22792015 14.62957701 -4.30117671 8.186573 0 0 Z " fill="#F97A93" transform="translate(396,44)"/>
<path d="M0 0 C5.57894737 3.15789474 5.57894737 3.15789474 7 6 C7.38610455 10.63325464 7.36969701 13.15277768 5.5 17.4375 C2.58838498 20.42190539 1.02281156 20.96047635 -3.0390625 21.171875 C-6.93786328 20.83014744 -9.09710853 18.87175728 -11.8125 16.25 C-13.52868326 12.99828436 -13.38162088 10.62539838 -13 7 C-11.73001681 4.14253783 -10.7161997 2.51862737 -8.1875 0.6875 C-5.22019177 -0.24508259 -3.10315844 -0.37237901 0 0 Z " fill="#030303" transform="translate(97,316)"/>
</svg>
